HIERARCHY
ROOT Hips
{
	OFFSET 0.00 0.00 0.00
	CHANNELS 6 Xposition Yposition Zposition Xrotation Yrotation Zrotation
	JOINT Spine
	{
		OFFSET 0.00000 3.24121 0.00000
		CHANNELS 3 Xrotation Yrotation Zrotation
		JOINT Head
		{
			OFFSET 0.00000 18.38296 0.00000
			CHANNELS 3 Xrotation Yrotation Zrotation
			End Site
			{
				OFFSET 0.00000 4.52755 0.00000
			}
		}
		JOINT LeftShoulder
		{
			OFFSET 0.00000 12.82826 0.00000
			CHANNELS 3 Xrotation Yrotation Zrotation
			JOINT LeftArm
			{
				OFFSET 7.74805 0.00000 0.00000
				CHANNELS 3 Xrotation Yrotation Zrotation
				JOINT LeftForeArm
				{
					OFFSET 10.63561 0.00000 0.00000
					CHANNELS 3 Yrotation Zrotation Xrotation
					JOINT LeftHand
					{
						OFFSET 8.34675 0.00000 0.00000
						CHANNELS 3 Xrotation Yrotation Zrotation
						JOINT LeftHandThumb1
						{
							OFFSET 0.00000 0.00000 0.00000
							CHANNELS 3 Xrotation Zrotation Yrotation
							End Site
							{
								OFFSET 0.00000 0.00000 3.93700
							}
						}
						End Site
						{
							OFFSET 3.93700 0.00000 0.00000
						}
					}
				}
			}
		}
		JOINT RightShoulder
		{
			OFFSET 0.00000 12.82826 0.00000
			CHANNELS 3 Xrotation Yrotation Zrotation
			JOINT RightArm
			{
				OFFSET -7.74805 0.00000 0.00000
				CHANNELS 3 Xrotation Yrotation Zrotation
				JOINT RightForeArm
				{
					OFFSET -10.63561 0.00000 0.00000
					CHANNELS 3 Yrotation Zrotation Xrotation
					JOINT RightHand
					{
						OFFSET -8.34675 0.00000 0.00000
						CHANNELS 3 Xrotation Yrotation Zrotation
						JOINT RightHandThumb1
						{
							OFFSET 0.00000 0.00000 0.00000
							CHANNELS 3 Xrotation Zrotation Yrotation
							End Site
							{
								OFFSET 0.00000 0.00000 3.93700
							}
						}
						End Site
						{
							OFFSET -3.93700 0.00000 0.00000
						}
					}
				}
			}
		}
	}
	JOINT LeftUpLeg
	{
		OFFSET 3.43402 0.00000 0.00000
		CHANNELS 3 Xrotation Yrotation Zrotation
		JOINT LeftLeg
		{
			OFFSET 0.00000 -15.71302 0.00000
			CHANNELS 3 Xrotation Yrotation Zrotation
			JOINT LeftFoot
			{
				OFFSET 0.00000 -14.43512 0.00000
				CHANNELS 3 Xrotation Yrotation Zrotation
				JOINT LeftToeBase
				{
					OFFSET 0.00000 -1.27828 4.77061
					CHANNELS 3 Xrotation Yrotation Zrotation
					End Site
					{
						OFFSET 0.00000 0.00000 2.95275
					}
				}
			}
		}
	}
	JOINT RightUpLeg
	{
		OFFSET -3.43402 0.00000 0.00000
		CHANNELS 3 Xrotation Yrotation Zrotation
		JOINT RightLeg
		{
			OFFSET 0.00000 -15.71302 0.00000
			CHANNELS 3 Xrotation Yrotation Zrotation
			JOINT RightFoot
			{
				OFFSET 0.00000 -14.43512 0.00000
				CHANNELS 3 Xrotation Yrotation Zrotation
				JOINT RightToeBase
				{
					OFFSET 0.00000 -1.27828 4.77061
					CHANNELS 3 Xrotation Yrotation Zrotation
					End Site
					{
						OFFSET 0.00000 0.00000 2.95275
					}
				}
			}
		}
	}
}
MOTION
Frames: 22
Frame Time: 0.008333
 0.5334 32.7105 -4.1757 40.7771 -2.9642 2.7831 -46.4816 -2.7651 -1.4508 -5.8161 -35.2864 -10.2562 45.5628 16.0586 9.4517 -60.4427 -41.8943 -103.7364 -9.1949 -0.0000 2.2168 2.1598 16.2167 -7.6910 33.1476 -0.0000 26.2537 25.7037 -21.0385 -30.5903 -88.8071 -36.9654 51.5135 104.9369 0.0000 -28.1771 4.1264 21.4995 -11.1362 32.8623 0.0000 -24.3270 -33.7349 10.7177 1.2658 0.4711 0.0000 -0.0000 -4.8338 1.2287 -2.8621 2.4341 0.0000 -0.0000 -34.3120 -9.1126 -0.9308 -0.9994 0.0000 0.0000 -5.1499 -8.8448 17.7750 17.3688 -0.0000 -0.0000
 0.5323 32.7108 -4.1708 40.7398 -2.9871 2.8005 -46.4636 -2.7340 -1.4556 -5.7686 -35.2769 -10.2237 45.5351 16.0670 9.4420 -60.4442 -41.9218 -103.7153 -9.1684 -0.0000 2.1682 2.1406 16.3068 -7.5827 33.1476 -0.0000 26.2537 25.6868 -21.0331 -30.6391 -88.7329 -36.9256 51.5226 104.8889 0.0000 -28.3635 4.1782 21.5017 -11.2718 32.8623 0.0000 -24.3270 -33.6873 10.7352 1.2632 0.4747 0.0000 0.0000 -4.8376 1.2399 -2.8530 2.4515 -0.0000 0.0000 -34.2716 -9.1057 -0.9335 -0.9953 0.0000 0.0000 -5.1412 -8.8266 17.7806 17.3383 -0.0000 0.0000
 0.5310 32.7105 -4.1662 40.6975 -2.9908 2.8053 -46.4436 -2.7236 -1.4716 -5.7076 -35.2438 -10.1825 45.5004 16.0709 9.4420 -60.4578 -41.9074 -103.7113 -9.1094 -0.0000 2.1715 2.1641 16.2565 -7.6877 33.1476 -0.0000 26.2537 25.7328 -21.0552 -30.6295 -88.7509 -36.8452 51.5054 104.8037 0.0000 -28.3321 4.2154 21.4253 -11.4077 32.8623 0.0000 -24.3270 -33.6407 10.7307 1.2596 0.4878 0.0000 -0.0000 -4.8432 1.2495 -2.8711 2.4427 0.0000 0.0000 -34.2199 -9.1241 -0.9354 -1.0012 0.0000 -0.0000 -5.1378 -8.8177 17.8287 17.3246 -0.0000 0.0000
 0.5290 32.7106 -4.1609 40.6608 -3.0181 2.8207 -46.4254 -2.6921 -1.4741 -5.6791 -35.2162 -10.1625 45.4861 16.0879 9.4155 -60.4844 -41.9263 -103.6909 -9.0661 -0.0000 2.0508 2.0889 16.4243 -7.3505 33.1476 -0.0000 26.2537 25.7092 -21.0382 -30.7092 -88.6735 -36.8906 51.4908 104.7522 0.0000 -28.4489 4.1653 21.4136 -11.2808 32.8623 0.0000 -24.3270 -33.5931 10.7649 1.2631 0.4914 0.0000 0.0000 -4.8537 1.2494 -2.8561 2.4532 -0.0000 -0.0000 -34.1766 -9.1172 -0.9313 -0.9975 0.0000 0.0000 -5.1502 -8.7898 17.7946 17.3394 -0.0000 0.0000
 0.5267 32.7109 -4.1569 40.6449 -3.0233 2.8212 -46.4304 -2.6862 -1.4814 -5.6447 -35.2278 -10.1286 45.4585 16.0925 9.4174 -60.4664 -41.9327 -103.6575 -9.0703 -0.0000 2.0431 2.1082 16.4682 -7.3988 33.1476 -0.0000 26.2537 25.7120 -21.0522 -30.7389 -88.6464 -36.8712 51.4923 104.6658 0.0000 -28.5863 4.1086 21.4580 -11.1092 32.8623 0.0000 -24.3270 -33.5736 10.7575 1.2683 0.4990 -0.0000 -0.0000 -4.8502 1.2486 -2.8425 2.4170 0.0000 -0.0000 -34.1534 -9.1211 -0.9253 -0.9975 -0.0000 -0.0000 -5.1537 -8.7829 17.7863 17.3312 -0.0000 -0.0000
 0.5242 32.7107 -4.1521 40.6127 -3.0436 2.8293 -46.4171 -2.6654 -1.4921 -5.6136 -35.2289 -10.0795 45.4288 16.1000 9.4218 -60.4401 -41.8997 -103.6056 -9.0649 -0.0000 2.0847 2.1216 16.5097 -7.4274 33.1476 -0.0000 26.2537 25.7283 -21.0439 -30.7691 -88.6309 -36.8532 51.4476 104.6082 0.0000 -28.7475 4.1852 21.4377 -11.3217 32.8623 0.0000 -24.3270 -33.5292 10.7709 1.2724 0.4965 -0.0000 0.0000 -4.8618 1.2724 -2.8320 2.4421 -0.0000 0.0000 -34.1116 -9.1136 -0.9179 -0.9992 -0.0000 -0.0000 -5.1734 -8.7687 17.7315 17.3919 -0.0000 -0.0000
 0.5215 32.7103 -4.1466 40.5734 -3.0619 2.8359 -46.3963 -2.6489 -1.4998 -5.5991 -35.2396 -10.0473 45.4044 16.1029 9.4251 -60.4223 -41.8835 -103.5626 -9.0687 -0.0000 2.2021 2.1645 16.3497 -7.6470 33.1476 -0.0000 26.2537 25.7297 -21.0451 -30.7970 -88.5829 -36.8432 51.4343 104.5705 0.0000 -28.7621 4.0940 21.3505 -11.1224 32.8623 0.0000 -24.3270 -33.4809 10.7974 1.2804 0.5025 0.0000 0.0000 -4.8742 1.2553 -2.8515 2.4328 -0.0000 0.0000 -34.0602 -9.1176 -0.9123 -1.0059 -0.0000 0.0000 -5.1628 -8.7531 17.7808 17.3765 0.0000 0.0000
 0.5188 32.7103 -4.1426 40.5647 -3.0737 2.8423 -46.4086 -2.6439 -1.5101 -5.5900 -35.2625 -10.0282 45.3730 16.1080 9.4281 -60.4165 -41.8756 -103.5345 -9.0292 -0.0000 2.2349 2.1655 16.2904 -7.6776 33.1476 -0.0000 26.2537 25.7391 -21.0460 -30.8289 -88.5518 -36.8339 51.4448 104.5300 0.0000 -28.7298 3.9753 21.4226 -10.7727 32.8623 0.0000 -24.3270 -33.4577 10.7690 1.2837 0.4927 0.0000 -0.0000 -4.8674 1.3047 -2.8577 2.4181 -0.0000 0.0000 -34.0393 -9.1115 -0.9065 -1.0161 -0.0000 -0.0000 -5.1474 -8.7434 17.7988 17.3496 0.0000 0.0000
 0.5157 32.7105 -4.1381 40.5470 -3.0873 2.8480 -46.4093 -2.6326 -1.5228 -5.5887 -35.3190 -9.9883 45.3631 16.1121 9.4270 -60.4090 -41.8539 -103.4885 -9.0239 -0.0000 2.2830 2.1632 16.2704 -7.6783 33.1476 -0.0000 26.2537 25.7083 -21.0315 -30.8634 -88.4825 -36.8380 51.4499 104.5017 0.0000 -28.7100 4.0408 21.3609 -10.9759 32.8623 0.0000 -24.3270 -33.4274 10.7776 1.2902 0.4869 0.0000 0.0000 -4.8681 1.3059 -2.8642 2.4410 -0.0000 -0.0000 -34.0083 -9.1041 -0.8974 -1.0265 0.0000 0.0000 -5.1431 -8.7399 17.7738 17.3073 -0.0000 -0.0000
 0.5130 32.7105 -4.1339 40.5271 -3.1009 2.8571 -46.4053 -2.6237 -1.5350 -5.5905 -35.3675 -9.9477 45.3187 16.1198 9.4342 -60.3865 -41.8396 -103.4484 -9.0029 -0.0000 2.2368 2.0991 16.3587 -7.4146 33.1476 -0.0000 26.2537 25.7130 -21.0433 -30.8903 -88.4776 -36.8719 51.4704 104.4635 0.0000 -28.8263 3.9606 21.4496 -10.7211 32.8623 0.0000 -24.3270 -33.4003 10.7985 1.2936 0.4928 -0.0000 0.0000 -4.8651 1.3045 -2.8784 2.4246 -0.0000 0.0000 -33.9825 -9.0959 -0.8950 -1.0227 -0.0000 -0.0000 -5.1583 -8.7400 17.7653 17.3705 -0.0000 0.0000
 0.5095 32.7107 -4.1303 40.5107 -3.1036 2.8566 -46.4059 -2.6147 -1.5504 -5.5832 -35.4434 -9.9080 45.2841 16.1009 9.4633 -60.3628 -41.8650 -103.4125 -9.0299 -0.0000 2.0835 2.1183 16.4628 -7.4361 33.1476 -0.0000 26.2537 25.6852 -21.0303 -30.9156 -88.3837 -36.8436 51.4898 104.4825 0.0000 -28.6917 4.0409 21.3875 -10.9634 32.8623 0.0000 -24.3270 -33.3777 10.7890 1.3002 0.4905 0.0000 0.0000 -4.8654 1.3181 -2.8736 2.4159 -0.0000 0.0000 -33.9513 -9.0870 -0.8873 -1.0357 -0.0000 -0.0000 -5.1520 -8.7361 17.7621 17.3311 -0.0000 0.0000
 0.5057 32.7113 -4.1265 40.5017 -3.1167 2.8602 -46.4126 -2.6113 -1.5619 -5.5900 -35.4954 -9.8733 45.2538 16.1058 9.4715 -60.3430 -41.8621 -103.3705 -9.0443 -0.0000 2.0591 2.1123 16.5025 -7.3982 33.1476 -0.0000 26.2537 25.6861 -21.0341 -30.9283 -88.3403 -36.8392 51.5300 104.4826 0.0000 -28.6603 4.0555 21.4117 -10.9907 32.8623 0.0000 -24.3270 -33.3526 10.7775 1.3074 0.4757 -0.0000 -0.0000 -4.8575 1.3415 -2.8789 2.4513 -0.0000 -0.0000 -33.9365 -9.0825 -0.8775 -1.0324 0.0000 0.0000 -5.1584 -8.7325 17.7671 17.3718 -0.0000 -0.0000
 0.5022 32.7115 -4.1226 40.4692 -3.1246 2.8563 -46.3928 -2.6080 -1.5758 -5.5823 -35.5270 -9.8091 45.2170 16.1039 9.4969 -60.3321 -41.8816 -103.3423 -9.0692 -0.0000 2.0732 2.1268 16.3799 -7.5020 33.1476 -0.0000 26.2537 25.6945 -21.0415 -30.9291 -88.3058 -36.8314 51.5519 104.4953 0.0000 -28.6497 4.0804 21.4104 -11.0573 32.8623 0.0000 -24.3270 -33.3098 10.7858 1.3169 0.4676 0.0000 -0.0000 -4.8548 1.3433 -2.8902 2.4250 -0.0000 0.0000 -33.8919 -9.0793 -0.8679 -1.0376 0.0000 0.0000 -5.1431 -8.7310 17.8028 17.3591 0.0000 0.0000
 0.4979 32.7119 -4.1190 40.4280 -3.1317 2.8498 -46.3641 -2.6192 -1.5909 -5.5605 -35.5568 -9.7184 45.1747 16.1069 9.5210 -60.3381 -41.9115 -103.3212 -9.0524 -0.0000 2.0606 2.0854 16.4601 -7.3229 33.1476 -0.0000 26.2537 25.6895 -21.0320 -30.9439 -88.2644 -36.8517 51.5885 104.5098 0.0000 -28.6479 4.0849 21.4183 -11.0655 32.8623 0.0000 -24.3270 -33.2609 10.7962 1.3292 0.4588 0.0000 -0.0000 -4.8490 1.3487 -2.8885 2.4247 -0.0000 -0.0000 -33.8395 -9.0756 -0.8552 -1.0416 0.0000 -0.0000 -5.1366 -8.7356 17.8273 17.3503 0.0000 -0.0000
 0.4937 32.7124 -4.1161 40.4088 -3.1429 2.8477 -46.3564 -2.6235 -1.6072 -5.5410 -35.5963 -9.6379 45.1603 16.1197 9.5400 -60.3324 -41.8695 -103.2820 -9.0868 -0.0000 2.1525 2.0970 16.4853 -7.3525 33.1476 -0.0000 26.2537 25.6526 -21.0125 -30.9641 -88.1889 -36.8641 51.6303 104.5166 0.0000 -28.6840 4.1101 21.4385 -11.1226 32.8623 0.0000 -24.3270 -33.2339 10.8006 1.3403 0.4554 0.0000 -0.0000 -4.8454 1.3566 -2.8886 2.4135 -0.0000 0.0000 -33.8146 -9.0591 -0.8418 -1.0391 0.0000 0.0000 -5.1322 -8.7421 17.8232 17.3454 0.0000 -0.0000
 0.4900 32.7129 -4.1127 40.3828 -3.1355 2.8317 -46.3467 -2.6425 -1.6212 -5.5394 -35.6414 -9.6016 45.1219 16.1176 9.5737 -60.3288 -41.8204 -103.2695 -9.0842 -0.0000 2.3481 2.2084 16.3178 -7.8151 33.1476 -0.0000 26.2537 25.6563 -21.0163 -30.9817 -88.1577 -36.9023 51.6648 104.5308 0.0000 -28.7547 4.1206 21.4675 -11.1364 32.8623 0.0000 -24.3270 -33.1983 10.7809 1.3511 0.4398 0.0000 -0.0000 -4.8333 1.3597 -2.8552 2.3867 -0.0000 -0.0000 -33.7730 -9.0802 -0.8288 -1.0498 0.0000 -0.0000 -5.1204 -8.7183 17.8026 17.3453 0.0000 -0.0000
 0.4876 32.7138 -4.1094 40.3550 -3.1440 2.8271 -46.3293 -2.6547 -1.6321 -5.5405 -35.7280 -9.5304 45.0802 16.1144 9.6044 -60.3080 -41.8896 -103.2402 -9.1473 -0.0000 2.2385 2.1756 16.2758 -7.7193 33.1476 -0.0000 26.2537 25.6389 -21.0010 -30.9965 -88.1220 -36.9380 51.6993 104.5406 0.0000 -28.8170 4.1031 21.4523 -11.0975 32.8623 0.0000 -24.3270 -33.1610 10.7940 1.3602 0.4276 0.0000 -0.0000 -4.8257 1.3596 -2.8727 2.4262 -0.0000 0.0000 -33.7444 -9.0874 -0.8227 -1.0390 0.0000 -0.0000 -5.1114 -8.7017 17.8530 17.3329 -0.0000 0.0000
 0.4837 32.7147 -4.1058 40.3190 -3.1474 2.8105 -46.3058 -2.6834 -1.6388 -5.5564 -35.7901 -9.4980 45.0422 16.1160 9.6095 -60.3250 -41.8810 -103.2382 -9.1077 -0.0000 2.1805 2.1255 16.3007 -7.5326 33.1476 -0.0000 26.2537 25.6664 -21.0141 -30.9933 -88.1353 -36.9757 51.7463 104.5481 0.0000 -28.8620 4.0914 21.4732 -11.0564 32.8623 0.0000 -24.3270 -33.1193 10.8170 1.3787 0.4173 0.0000 -0.0000 -4.8129 1.3386 -2.8558 2.3798 -0.0000 0.0000 -33.6913 -9.0878 -0.8024 -1.0510 0.0000 0.0000 -5.1009 -8.6978 17.8297 17.3389 -0.0000 0.0000
 0.4797 32.7158 -4.1042 40.3133 -3.1511 2.8025 -46.3092 -2.6915 -1.6550 -5.5697 -35.8397 -9.4530 45.0002 16.1187 9.6450 -60.3500 -41.8933 -103.2456 -9.0966 -0.0000 2.2015 2.1234 16.3506 -7.5032 33.1476 -0.0000 26.2537 25.6411 -21.0062 -30.9966 -88.0955 -37.0050 51.7946 104.5655 0.0000 -28.9380 4.1135 21.4247 -11.1383 32.8623 0.0000 -24.3270 -33.1073 10.8264 1.3922 0.4065 0.0000 -0.0000 -4.7899 1.3216 -2.8609 2.3278 0.0000 -0.0000 -33.6791 -9.0672 -0.7887 -1.0493 -0.0000 0.0000 -5.1016 -8.7259 17.8623 17.3863 -0.0000 0.0000
 0.4762 32.7167 -4.1011 40.2945 -3.1543 2.7885 -46.3002 -2.7106 -1.6631 -5.5758 -35.8999 -9.4060 44.9549 16.1279 9.6720 -60.3639 -41.9069 -103.2353 -9.0938 -0.0000 2.2717 2.1828 16.3207 -7.7242 33.1476 -0.0000 26.2537 25.6168 -20.9912 -31.0003 -88.0783 -37.0467 51.8096 104.5649 0.0000 -28.9143 4.0982 21.4441 -11.0884 32.8623 0.0000 -24.3270 -33.0825 10.8530 1.4094 0.3932 -0.0000 -0.0000 -4.7928 1.3073 -2.8922 2.3763 0.0000 -0.0000 -33.6493 -9.0921 -0.7693 -1.0572 -0.0000 -0.0000 -5.0871 -8.6947 17.8003 17.3598 0.0000 0.0000
 0.4726 32.7173 -4.0988 40.2692 -3.1500 2.7715 -46.2820 -2.7357 -1.6713 -5.5773 -35.9582 -9.3587 44.9144 16.1367 9.6886 -60.4280 -41.9600 -103.2610 -9.0587 -0.0000 2.2419 2.2016 16.3110 -7.7943 33.1476 -0.0000 26.2537 25.5899 -20.9785 -30.9872 -88.0618 -37.0488 51.8362 104.5704 0.0000 -28.8925 4.1183 21.4570 -11.1354 32.8623 0.0000 -24.3270 -33.0574 10.8559 1.4242 0.3917 -0.0000 0.0000 -4.7896 1.3046 -2.8981 2.3801 0.0000 -0.0000 -33.6123 -9.0964 -0.7558 -1.0633 -0.0000 -0.0000 -5.0672 -8.6957 17.8370 17.3359 -0.0000 0.0000
 0.4689 32.7182 -4.0985 40.2674 -3.1570 2.7675 -46.2830 -2.7481 -1.6829 -5.5843 -36.0537 -9.2932 44.8716 16.1379 9.7114 -60.4371 -41.9648 -103.2543 -9.0681 -0.0000 2.2180 2.2031 16.3318 -7.7901 33.1476 -0.0000 26.2537 25.5626 -20.9751 -30.9852 -88.0648 -37.0978 51.8744 104.5562 0.0000 -28.9790 4.0824 21.5210 -11.0097 32.8623 0.0000 -24.3270 -33.0561 10.8739 1.4382 0.3893 -0.0000 0.0000 -4.7864 1.2900 -2.9076 2.4191 -0.0000 0.0000 -33.6088 -9.0719 -0.7437 -1.0586 0.0000 -0.0000 -5.0537 -8.7175 17.8660 17.3303 0.0000 0.0000
